<?xml version="1.0" encoding="UTF-8"?>
<svg id="Capa_2" data-name="Capa 2" xmlns="http://www.w3.org/2000/svg" viewBox="0 0 1920 1172.85">
  <defs>
    <style>
      .cls-1 {
        letter-spacing: .03em;
      }

      .cls-2 {
        letter-spacing: 0em;
      }

      .cls-3 {
        letter-spacing: .03em;
      }

      .cls-4 {
        fill: #f5cc39;
      }

      .cls-5 {
        fill: #ffce00;
      }

      .cls-6 {
        font-family: Oswald-Medium, Oswald;
        font-size: 75.79px;
        font-variation-settings: ';
        font-weight: 500;
      }

      .cls-7 {
        letter-spacing: .03em;
      }
    </style>
  </defs>
  <g id="logos">
    <g>
      <path class="cls-4" d="m1903.53,624.39l-526.65,548.45H0V0h1382.57l520.97,541.77c21.95,22.82,21.95,59.8,0,82.62Z"/>
      <g>
        <text class="cls-6" transform="translate(234.83 849.17) scale(.96 1)"><tspan class="cls-1" x="0" y="0">SISTEM</tspan><tspan class="cls-7" x="228.44" y="0">A</tspan><tspan class="cls-1" x="270.35" y="0">S </tspan><tspan class="cls-7" x="331.52" y="0">A</tspan><tspan class="cls-1" x="373.43" y="0">U</tspan><tspan class="cls-7" x="418.98" y="0">T</tspan><tspan class="cls-1" x="453.92" y="0">OM</tspan><tspan class="cls-2" x="553.66" y="0">A</tspan><tspan class="cls-1" x="593" y="0">TICOS PE</tspan><tspan class="cls-2" x="879.5" y="0">A</tspan><tspan class="cls-3" x="918.83" y="0">T</tspan><tspan class="cls-1" x="953.77" y="0">ONALES</tspan></text>
        <g>
          <path d="m772.33,728.38c-23.65,0-43.4-4.37-59.26-13.1-15.87-8.73-27.84-22.23-35.93-40.5-8.09-18.27-12.6-41.96-13.53-71.07l71.39-11.15c.31,16.82,1.78,30.4,4.43,40.75,2.64,10.35,6.37,17.79,11.2,22.31,4.82,4.53,10.65,6.79,17.5,6.79,8.71,0,14.39-3.07,17.03-9.22,2.64-6.14,3.96-12.61,3.96-19.4,0-16.17-3.73-29.83-11.2-40.99-7.47-11.16-17.58-22.39-30.33-33.71l-32.66-29.59c-14.31-12.61-26.36-26.92-36.16-42.93-9.8-16.01-14.7-35.81-14.7-59.42,0-33.3,9.49-58.77,28.46-76.4,18.97-17.63,44.8-26.44,77.46-26.44,20.22,0,36.47,3.56,48.76,10.67,12.28,7.12,21.62,16.42,28,27.89,6.37,11.48,10.73,23.61,13.06,36.38,2.33,12.78,3.65,24.98,3.97,36.62l-71.86,9.22c-.31-11.64-1.01-21.75-2.1-30.32-1.09-8.56-3.35-15.19-6.77-19.88-3.42-4.69-8.71-7.04-15.86-7.04-7.78,0-13.46,3.4-17.03,10.19-3.58,6.79-5.37,13.59-5.37,20.38,0,14.55,3.34,26.44,10.03,35.65,6.68,9.22,15.47,18.84,26.36,28.86l31.26,28.62c16.48,14.55,30.4,31.04,41.76,49.48,11.35,18.43,17.03,41.23,17.03,68.4,0,18.43-4.05,35.16-12.13,50.2-8.09,15.04-19.53,26.92-34.3,35.65-14.78,8.73-32.28,13.1-52.49,13.1Z"/>
          <path d="m890.75,722.55l71.39-392.9h95.19l70.46,392.9h-76.99l-12.6-82.95h-55.53l-13.07,82.95h-78.86Zm99.39-134.85h40.13l-20.07-153.29-20.07,153.29Z"/>
          <path d="m1153.8,722.55v-392.9h126.92c22.7,0,41.37,4.45,55.99,13.34,14.62,8.9,25.5,21.83,32.66,38.81,7.15,16.98,10.73,37.59,10.73,61.84,0,30.4-4.83,53.6-14.46,69.61-9.65,16-22.71,27.08-39.2,33.23-16.49,6.15-34.99,9.22-55.53,9.22h-33.6v166.86h-83.52Zm83.52-227.5h28c10.27,0,18.04-1.94,23.33-5.82,5.29-3.88,8.79-9.7,10.5-17.46,1.71-7.76,2.57-17.63,2.57-29.59,0-10.02-.7-18.84-2.1-26.44-1.4-7.59-4.75-13.66-10.03-18.19-5.29-4.52-13.53-6.79-24.73-6.79h-27.53v104.29Z"/>
        </g>
        <path d="m512.68,560.91h109.95c.55,0,1.03-.41,1.12-.98,1.78-10.99,2.76-22.26,2.76-33.77s-.98-22.79-2.76-33.77c-.09-.57-.57-.98-1.12-.98h-109.95s0,0,0,0l77.74-80.81c.39-.41.44-1.05.12-1.52-12.64-18.47-28.18-34.62-45.94-47.76-.45-.33-1.07-.28-1.46.13l-75.82,78.82c-.71.74-1.92.21-1.92-.83v-111.48c0-.57-.4-1.07-.94-1.16-10.57-1.85-21.41-2.87-32.49-2.87-11.08,0-21.92,1.02-32.49,2.87-.54.1-.94.59-.94,1.16v91.05s96.63,100.46,96.63,100.46c3.56,3.7,3.56,9.69,0,13.39l-96.63,100.66v90.85c0,.57.4,1.07.94,1.16,10.57,1.85,21.41,2.87,32.49,2.87s21.92-1.02,32.49-2.87c.54-.1.94-.59.94-1.16v-111.48c0-1.04,1.21-1.56,1.92-.83l75.82,78.82c.39.41,1.01.46,1.46.13,17.76-13.14,33.3-29.29,45.94-47.76.32-.47.27-1.11-.12-1.52l-77.74-80.81h0Zm-55.14-41.45l-145.43-151.21c-.41-.42-1.06-.46-1.51-.09-14.86,12.35-27.96,26.9-38.8,43.21-.31.47-.25,1.1.13,1.51l73.6,76.53c.71.74.21,1.99-.79,1.99h-103.44c-.55,0-1.03.41-1.12.98-1.78,10.99-2.76,22.26-2.76,33.77s.98,22.79,2.76,33.78c.09.57.57.98,1.12.98h103.48c1,0,1.5,1.26.79,1.99l-73.61,76.59c-.39.4-.44,1.04-.13,1.51,10.86,16.33,23.99,30.89,38.88,43.25.45.37,1.1.33,1.51-.09l145.31-151.31c3.56-3.7,3.56-9.69,0-13.39Zm37.62,13.39c1.78-1.85,2.67-4.27,2.67-6.69,0,2.42-.89,4.84-2.67,6.69Z"/>
        <path class="cls-5" d="m241.69,560.91h103.09c1,0,1.5,1.26.79,1.99l-73.31,76.27c-.5.52-1.35.44-1.74-.17-14.72-22.71-25.09-48.71-29.95-76.71-.12-.72.41-1.39,1.12-1.39Z"/>
        <path class="cls-5" d="m270.49,413.36c-14.7,22.7-25.06,48.68-29.91,76.65-.12.72.41,1.39,1.12,1.39h103.05c1,0,1.5-1.26.79-1.99l-73.3-76.21c-.5-.52-1.35-.44-1.74.17Z"/>
      </g>
    </g>
  </g>
</svg>