<svg width="287" height="287" viewBox="0 0 287 287" fill="none" xmlns="http://www.w3.org/2000/svg">
<path d="M278.555 241.226L275.456 238.127C251.574 214.245 207.927 170.598 171.756 134.399L242.633 63.5223L257.819 64.5839C257.93 64.5902 258.042 64.5934 258.15 64.5934C259.863 64.5934 261.459 63.6653 262.298 62.1492L285.421 20.4701C286.451 18.6202 286.127 16.3127 284.626 14.8156L271.236 1.42798C269.742 -0.0690739 267.431 -0.393276 265.581 0.633364L223.902 23.7598C222.29 24.6529 221.343 26.4011 221.47 28.2382L222.532 43.4185L151.656 114.295C133.545 96.184 119.471 82.1099 114.194 76.8336C121.384 55.9416 116.149 32.7739 100.39 17.0151C84.8541 1.48201 62.2521 -3.92454 41.3951 2.90914C41.322 2.93457 41.2616 2.97271 41.1885 3.00131C41.1122 3.02992 41.0455 3.06488 40.9724 3.09667C40.4479 3.32552 39.9839 3.63383 39.5897 4.01524C39.5675 4.03749 39.5389 4.04067 39.5166 4.06292C39.488 4.09152 39.4785 4.12966 39.4531 4.15827C39.0653 4.56511 38.757 5.02917 38.5345 5.5409C38.5027 5.61082 38.4773 5.68075 38.4519 5.75385C38.2643 6.24969 38.1594 6.77414 38.1467 7.31765C38.1467 7.39076 38.1467 7.45751 38.1499 7.53061C38.1594 7.98513 38.2135 8.43965 38.3629 8.89417C38.3883 8.97045 38.4296 9.03402 38.4582 9.10712C38.4836 9.17705 38.5186 9.2438 38.5504 9.31054C38.7824 9.83499 39.0875 10.299 39.469 10.6932C39.4912 10.7154 39.4976 10.7472 39.5198 10.7695L62.0519 33.3015C64.2005 35.4501 65.3829 38.3012 65.3861 41.3335C65.3893 44.3625 64.21 47.2072 62.0678 49.3495L50.7684 60.6521C46.344 65.0733 39.1448 65.0606 34.7203 60.6362L12.1883 38.1042C12.166 38.0819 12.1374 38.0787 12.1184 38.0565C11.7242 37.6751 11.257 37.3668 10.7326 37.1347C10.6594 37.1029 10.5927 37.068 10.5196 37.0394C10.4465 37.0108 10.3829 36.9694 10.3098 36.9472C9.86165 36.801 9.40714 36.747 8.95897 36.7374C8.88269 36.7342 8.80959 36.7311 8.7333 36.7342C8.19297 36.747 7.66852 36.8518 7.17268 37.0394C7.10276 37.0648 7.03601 37.0902 6.96608 37.122C6.45117 37.3445 5.98394 37.656 5.5771 38.0469C5.54849 38.0724 5.51353 38.0819 5.48492 38.1073C5.46267 38.1296 5.45949 38.1582 5.43724 38.1773C5.05583 38.5714 4.74752 39.0354 4.51867 39.5599C4.48689 39.633 4.45193 39.7029 4.42332 39.7792C4.39471 39.8523 4.35657 39.9159 4.33114 39.989C-2.48028 60.8587 2.92309 83.4607 18.4371 98.9779C29.5458 110.083 44.332 115.979 59.4106 115.979C65.723 115.979 72.0735 114.88 78.2366 112.763L102.132 136.662C101.716 136.63 101.315 136.541 100.896 136.541C96.3919 136.541 92.155 138.295 88.9734 141.48L4.93505 225.509C1.74706 228.694 -0.00744629 232.931 -0.00744629 237.435C-0.00744629 241.938 1.74706 246.175 4.93505 249.36L12.2296 256.658L12.2328 256.664L12.2391 256.667L36.691 281.122C39.8758 284.307 44.1127 286.062 48.6165 286.062C53.1236 286.062 57.3605 284.307 60.5421 281.122L144.574 197.087C147.762 193.902 149.517 189.666 149.517 185.162C149.517 184.745 149.428 184.345 149.396 183.932L242.591 277.187C247.54 282.136 254.043 284.609 260.556 284.609C267.065 284.609 273.581 282.136 278.552 277.187C283.345 272.398 285.984 266.018 285.984 259.223C285.987 252.405 283.345 246.016 278.555 241.226ZM230.771 48.5994C230.793 48.5772 230.799 48.5454 230.821 48.5231C231.209 48.1195 231.518 47.6522 231.743 47.1341C231.772 47.0706 231.804 47.0134 231.829 46.9498C232.02 46.4603 232.118 45.9327 232.134 45.386C232.137 45.3065 232.144 45.2303 232.14 45.1476C232.14 45.0682 232.153 44.995 232.147 44.9156L231.146 30.5903L267.056 10.6646L275.39 19.0016L255.464 54.9118L241.139 53.9074C241.056 53.9011 240.98 53.917 240.9 53.9138C240.827 53.9138 240.757 53.917 240.684 53.9201C240.137 53.9329 239.61 54.0346 239.117 54.2253C239.044 54.2539 238.981 54.2888 238.907 54.3206C238.408 54.5431 237.951 54.8419 237.557 55.217C237.525 55.2456 237.487 55.2551 237.455 55.2837L148.484 144.258L141.796 137.571L230.771 48.5994ZM82.9121 104.022C81.6089 102.659 79.562 102.147 77.7058 102.903C59.5949 110.252 38.9572 106.082 25.1373 92.265C14.1017 81.2262 9.21007 65.8997 11.4922 50.8243L28.0074 67.3428C32.0759 71.408 37.4157 73.4422 42.7555 73.4422C48.0857 73.4422 53.416 71.4144 57.4717 67.3587L68.7711 56.0592C72.706 52.1243 74.8706 46.8958 74.8674 41.3303C74.8642 35.768 72.6933 30.5331 68.7521 26.595L52.2273 10.0702C67.2963 7.77535 82.6228 12.6702 93.6775 23.7217C107.288 37.3318 111.515 57.5499 104.602 75.4574L99.6371 80.4539C97.7904 82.3101 97.8031 85.3137 99.6593 87.1604C100.584 88.0822 101.795 88.5399 103.003 88.5399C104.224 88.5399 105.441 88.0726 106.369 87.1382L108.718 84.7766C114.668 90.7266 128.037 104.095 144.943 121.001L135.064 130.88C132.502 128.429 129.168 127.06 125.615 127.06C121.953 127.06 118.511 128.487 115.923 131.074L112.942 134.055L82.9121 104.022ZM32.7465 263.758L22.2989 253.308L94.8281 180.779C97.6188 177.988 102.488 177.988 105.279 180.779C108.162 183.658 108.162 188.343 105.279 191.226L32.7465 263.758ZM137.874 190.381L53.8387 274.413C51.0544 277.197 46.185 277.197 43.4007 274.413L39.4531 270.465L111.985 197.933C118.565 191.353 118.565 180.648 111.985 174.069C108.797 170.881 104.561 169.123 100.053 169.123C95.5432 169.123 91.3064 170.878 88.1216 174.069L15.5892 246.601L11.6416 242.65C10.2494 241.255 9.48024 239.402 9.48024 237.431C9.48024 235.461 10.2494 233.608 11.6416 232.212L95.6736 148.177C97.0657 146.785 98.9188 146.016 100.889 146.016C102.863 146.016 104.716 146.782 106.108 148.177L137.871 179.939C139.263 181.332 140.032 183.185 140.032 185.155C140.035 187.132 139.266 188.985 137.874 190.381ZM148.267 163.418L141.516 170.169L115.882 144.538L122.636 137.787C124.226 136.198 127.004 136.194 128.599 137.787L131.708 140.892C131.717 140.902 131.72 140.918 131.733 140.93L145.127 154.324C145.137 154.334 145.153 154.337 145.165 154.35L148.274 157.458C149.911 159.102 149.911 161.775 148.267 163.418ZM271.855 270.471C265.622 276.676 255.505 276.679 249.304 270.478L151.996 173.106L154.977 170.124C160.247 164.855 160.295 156.343 155.171 150.984L165.05 141.105C201.224 177.308 244.87 220.951 268.75 244.834L271.849 247.933C274.846 250.93 276.499 254.938 276.499 259.22C276.499 263.479 274.846 267.477 271.855 270.471Z" fill="black"/>
<path d="M260.575 266.845C264.793 266.845 268.213 263.425 268.213 259.207C268.213 254.989 264.793 251.569 260.575 251.569C256.357 251.569 252.937 254.989 252.937 259.207C252.937 263.425 256.357 266.845 260.575 266.845Z" fill="black"/>
</svg>
